<?xml version="1.0" encoding="utf-8"?>
<!-- Generator: Adobe Illustrator 18.1.1, SVG Export Plug-In . SVG Version: 6.00 Build 0)  -->
<svg version="1.1" xmlns="http://www.w3.org/2000/svg" xmlns:xlink="http://www.w3.org/1999/xlink" x="0px" y="0px"
	 viewBox="0 0 1024 1024" enable-background="new 0 0 1024 1024" xml:space="preserve">
<g id="Layer_1" display="none">
	<path display="inline" d="M1021.1,510.9c0,277.1-228.4,501.8-510,501.8c-281.6,0-510-224.7-510-501.8
		c0-277.2,228.3-501.8,510-501.8C792.8,9.1,1021.1,233.7,1021.1,510.9z"/>
	<path display="inline" fill="#FFFFFF" d="M108.2,819.2c-14.1-17.9-16.5-22.4-16.5-22.4l-0.9-570.1c0,0,0.6-1.9,16.6-22.4
		c18.1-23.2,21.7-26.1,21.7-26.1l0,665.3C129.2,843.4,124.2,839.5,108.2,819.2z"/>
	<path display="inline" fill="#FFFFFF" d="M238,836.8h-38.4V546.3c-11.3-1.2-23.8-1.2-37.5,0V508H238V836.8z"/>
	<path display="inline" fill="#C0272D" d="M242.8,365.3c0,21.9-11,32.9-32.9,32.9c-8.5,0-16.2-3.3-22.8-10
		c-6.7-6.7-10.1-14.3-10.1-22.9c0-7.3,3.7-14.8,11-22.4c7.3-7.6,14.6-11.4,21.9-11.4c7.9,0,15.4,3.7,22.4,11
		C239.3,349.8,242.8,357.4,242.8,365.3z"/>
	<path display="inline" fill="#FFFFFF" d="M902.4,833.1C891.3,846,878.8,859,878.8,859V661.1c0-16.4-7.7-35.7-23.2-57.8
		c-15.5-22.2-30.8-36.6-46-43.3c-20.6-9.1-39.8-13.7-57.3-13.7c-14,0-33,4.6-57.3,13.7c-15.8,6.1-31.3,20-46.4,41.9
		c-15.2,21.9-22.7,41.3-22.7,58.3v176.6h-38.4V661.1c0-17-7.7-36.3-23.1-57.8c-15.4-21.6-31-36-46.7-43.3
		c-19.9-9.1-39-13.7-57.1-13.7c-13.3,0-32,4.6-56.2,13.7c-16.3,6.1-32,20-47.1,41.9c-15.1,21.9-22.7,41.3-22.7,58.3v176.6h-38.4V508
		h38.4v58.4C369.3,527.5,411,508,459.8,508c61.6,0,110.1,28.3,145.4,84.9c10.4-12.2,21-24.4,32-36.5c14.6-15.8,26.5-25.5,35.7-29.2
		c31.1-12.8,57.6-19.2,79.6-19.2c59.1,0,104.9,24.4,137.2,73.1c18.3,28.6,27.4,53.6,27.4,74.9v158.9
		C917.2,814.8,914.5,819,902.4,833.1z"/>
</g>
<g id="Layer_1_copy">
	<path fill="#FFFFFF" d="M1021.1,510.9c0,277.1-228.4,501.8-510,501.8c-281.6,0-510-224.7-510-501.8c0-277.2,228.3-501.8,510-501.8
		C792.8,9.1,1021.1,233.7,1021.1,510.9z"/>
	<path d="M108.2,819.2c-14.1-17.9-16.5-22.4-16.5-22.4l-0.9-570.1c0,0,0.6-1.9,16.6-22.4c18.1-23.2,21.7-26.1,21.7-26.1l0,665.3
		C129.2,843.4,124.2,839.5,108.2,819.2z"/>
	<path d="M238,836.8h-38.4V546.3c-11.3-1.2-23.8-1.2-37.5,0V508H238V836.8z"/>
	<path fill="#C0272D" d="M242.8,365.3c0,21.9-11,32.9-32.9,32.9c-8.5,0-16.2-3.3-22.8-10c-6.7-6.7-10.1-14.3-10.1-22.9
		c0-7.3,3.7-14.8,11-22.4c7.3-7.6,14.6-11.4,21.9-11.4c7.9,0,15.4,3.7,22.4,11C239.3,349.8,242.8,357.4,242.8,365.3z"/>
	<path d="M902.4,833.1C891.3,846,878.8,859,878.8,859V661.1c0-16.4-7.7-35.7-23.2-57.8c-15.5-22.2-30.8-36.6-46-43.3
		c-20.6-9.1-39.8-13.7-57.3-13.7c-14,0-33,4.6-57.3,13.7c-15.8,6.1-31.3,20-46.4,41.9c-15.2,21.9-22.7,41.3-22.7,58.3v176.6h-38.4
		V661.1c0-17-7.7-36.3-23.1-57.8c-15.4-21.6-31-36-46.7-43.3c-19.9-9.1-39-13.7-57.1-13.7c-13.3,0-32,4.6-56.2,13.7
		c-16.3,6.1-32,20-47.1,41.9c-15.1,21.9-22.7,41.3-22.7,58.3v176.6h-38.4V508h38.4v58.4C369.3,527.5,411,508,459.8,508
		c61.6,0,110.1,28.3,145.4,84.9c10.4-12.2,21-24.4,32-36.5c14.6-15.8,26.5-25.5,35.7-29.2c31.1-12.8,57.6-19.2,79.6-19.2
		c59.1,0,104.9,24.4,137.2,73.1c18.3,28.6,27.4,53.6,27.4,74.9v158.9C917.2,814.8,914.5,819,902.4,833.1z"/>
</g>
</svg>
